<svg width="71" height="71" viewBox="0 0 71 71" fill="none" xmlns="http://www.w3.org/2000/svg">
<g clip-path="url(#clip0_48_495)">
<path d="M35.5 6.39277C44.9852 6.39277 46.1084 6.43437 49.8387 6.60078C53.3055 6.75332 55.1775 7.33574 56.4256 7.82109C58.0758 8.45898 59.2684 9.23555 60.5025 10.4697C61.7506 11.7178 62.5133 12.8965 63.1512 14.5467C63.6365 15.7947 64.219 17.6807 64.3715 21.1336C64.5379 24.8777 64.5795 26.001 64.5795 35.4723C64.5795 44.9574 64.5379 46.0807 64.3715 49.8109C64.219 53.2777 63.6365 55.1498 63.1512 56.3979C62.5133 58.048 61.7367 59.2406 60.5025 60.4748C59.2545 61.7229 58.0758 62.4855 56.4256 63.1234C55.1775 63.6088 53.2916 64.1912 49.8387 64.3438C46.0945 64.5102 44.9713 64.5518 35.5 64.5518C26.0148 64.5518 24.8916 64.5102 21.1613 64.3438C17.6945 64.1912 15.8225 63.6088 14.5744 63.1234C12.9242 62.4855 11.7316 61.709 10.4975 60.4748C9.24941 59.2268 8.48672 58.048 7.84883 56.3979C7.36348 55.1498 6.78106 53.2639 6.62852 49.8109C6.46211 46.0668 6.42051 44.9436 6.42051 35.4723C6.42051 25.9871 6.46211 24.8639 6.62852 21.1336C6.78106 17.6668 7.36348 15.7947 7.84883 14.5467C8.48672 12.8965 9.26328 11.7039 10.4975 10.4697C11.7455 9.22168 12.9242 8.45898 14.5744 7.82109C15.8225 7.33574 17.7084 6.75332 21.1613 6.60078C24.8916 6.43437 26.0148 6.39277 35.5 6.39277ZM35.5 0C25.8623 0 24.6559 0.0416016 20.8701 0.208008C17.0982 0.374414 14.5051 0.98457 12.2586 1.8582C9.91504 2.77344 7.93203 3.97988 5.96289 5.96289C3.97988 7.93203 2.77344 9.91504 1.8582 12.2447C0.98457 14.5051 0.374414 17.0844 0.208008 20.8562C0.0416016 24.6559 0 25.8623 0 35.5C0 45.1377 0.0416016 46.3441 0.208008 50.1299C0.374414 53.9018 0.98457 56.4949 1.8582 58.7414C2.77344 61.085 3.97988 63.068 5.96289 65.0371C7.93203 67.0062 9.91504 68.2266 12.2447 69.1279C14.5051 70.0016 17.0844 70.6117 20.8563 70.7781C24.642 70.9445 25.8484 70.9861 35.4861 70.9861C45.1238 70.9861 46.3303 70.9445 50.116 70.7781C53.8879 70.6117 56.4811 70.0016 58.7275 69.1279C61.0572 68.2266 63.0402 67.0062 65.0094 65.0371C66.9785 63.068 68.1988 61.085 69.1002 58.7553C69.9738 56.4949 70.584 53.9156 70.7504 50.1437C70.9168 46.358 70.9584 45.1516 70.9584 35.5139C70.9584 25.8762 70.9168 24.6697 70.7504 20.884C70.584 17.1121 69.9738 14.5189 69.1002 12.2725C68.2266 9.91504 67.0201 7.93203 65.0371 5.96289C63.068 3.99375 61.085 2.77344 58.7553 1.87207C56.4949 0.998437 53.9156 0.388281 50.1438 0.221875C46.3441 0.0416016 45.1377 0 35.5 0Z" fill="white"/>
<path d="M35.5 17.2646C25.4324 17.2646 17.2646 25.4324 17.2646 35.5C17.2646 45.5676 25.4324 53.7354 35.5 53.7354C45.5676 53.7354 53.7354 45.5676 53.7354 35.5C53.7354 25.4324 45.5676 17.2646 35.5 17.2646ZM35.5 47.3287C28.9686 47.3287 23.6713 42.0314 23.6713 35.5C23.6713 28.9686 28.9686 23.6713 35.5 23.6713C42.0314 23.6713 47.3287 28.9686 47.3287 35.5C47.3287 42.0314 42.0314 47.3287 35.5 47.3287Z" fill="white"/>
<path d="M58.7137 16.5434C58.7137 18.9008 56.8 20.8006 54.4564 20.8006C52.099 20.8006 50.1992 18.8869 50.1992 16.5434C50.1992 14.1859 52.1129 12.2861 54.4564 12.2861C56.8 12.2861 58.7137 14.1998 58.7137 16.5434Z" fill="white"/>
</g>
<defs>
<clipPath id="clip0_48_495">
<rect width="71" height="71" fill="white"/>
</clipPath>
</defs>
</svg>
