<svg width="71" height="71" viewBox="0 0 71 71" fill="none" xmlns="http://www.w3.org/2000/svg">
<g clip-path="url(#clip0_48_494)">
<path d="M65.7443 0H5.2418C2.34355 0 0 2.28809 0 5.11699V65.8691C0 68.698 2.34355 71 5.2418 71H65.7443C68.6426 71 71 68.698 71 65.883V5.11699C71 2.28809 68.6426 0 65.7443 0ZM21.0643 60.5025H10.5252V26.6111H21.0643V60.5025ZM15.7947 21.9934C12.4111 21.9934 9.6793 19.2615 9.6793 15.8918C9.6793 12.5221 12.4111 9.79023 15.7947 9.79023C19.1645 9.79023 21.8963 12.5221 21.8963 15.8918C21.8963 19.2477 19.1645 21.9934 15.7947 21.9934ZM60.5025 60.5025H49.9773V44.0283C49.9773 40.1039 49.908 35.0424 44.4998 35.0424C39.0223 35.0424 38.1902 39.3273 38.1902 43.751V60.5025H27.6789V26.6111H37.7742V31.2428H37.9129C39.3135 28.5803 42.7525 25.7652 47.8695 25.7652C58.5334 25.7652 60.5025 32.782 60.5025 41.9066V60.5025Z" fill="white"/>
</g>
<defs>
<clipPath id="clip0_48_494">
<rect width="71" height="71" fill="white"/>
</clipPath>
</defs>
</svg>
