<svg width="64" height="63" viewBox="0 0 64 63" fill="none" xmlns="http://www.w3.org/2000/svg">
<path d="M63.6789 29.6422C62.5956 11.3727 45.8046 -2.70753 26.4647 0.442409C13.1465 2.61587 2.47294 13.2941 0.40194 26.4607C-0.808797 34.0836 0.784342 41.2969 4.25725 47.2503L1.42154 57.6766C0.78431 60.0391 2.98269 62.181 5.34044 61.5195L15.7273 58.6846C20.4428 61.425 25.9549 63 31.8493 63C49.8192 63 64.7303 47.3448 63.6789 29.6422ZM47.4296 43.2184C47.1428 43.7854 46.7923 44.3209 46.3463 44.8249C45.5497 45.6753 44.6895 46.3053 43.7336 46.6833C42.7778 47.0928 41.7263 47.2818 40.6112 47.2818C38.9862 47.2818 37.2339 46.9041 35.4178 46.1166C33.5698 45.3292 31.7537 44.2894 29.9376 42.9979C28.0896 41.6749 26.3691 40.1945 24.7123 38.588C23.0555 36.95 21.5898 35.2176 20.2516 33.4221C18.9453 31.6266 17.8939 29.8312 17.1292 28.0357C16.3646 26.2402 15.9823 24.5079 15.9823 22.87C15.9823 21.799 16.1734 20.7595 16.5558 19.8145C16.9381 18.838 17.5435 17.9561 18.4038 17.1686C19.4234 16.1606 20.5384 15.6881 21.7173 15.6881C22.1633 15.6881 22.6093 15.7826 23.0235 15.9716C23.4377 16.1606 23.8201 16.4441 24.1069 16.8535L27.8029 22.0194C28.0896 22.4289 28.3126 22.7754 28.4401 23.1219C28.5994 23.4684 28.6631 23.7834 28.6631 24.0984C28.6631 24.4764 28.5357 24.8544 28.3126 25.2323C28.0896 25.6102 27.8029 25.9882 27.4205 26.3662L26.2098 27.6262C26.0186 27.8152 25.9549 28.0042 25.9549 28.2562C25.9549 28.3822 25.9868 28.5082 26.0186 28.6342C26.0823 28.7602 26.1142 28.8547 26.1461 28.9492C26.4328 29.4847 26.9426 30.1462 27.6436 30.9651C28.3764 31.7841 29.141 32.6346 29.9694 33.4536C30.8297 34.3041 31.6581 35.0601 32.5184 35.7845C33.3468 36.4775 34.0477 36.95 34.5894 37.2335C34.6849 37.265 34.7805 37.328 34.8761 37.3595C35.0036 37.4225 35.131 37.4225 35.2903 37.4225C35.5771 37.4225 35.7682 37.328 35.9594 37.139L37.1701 35.942C37.5843 35.5326 37.9667 35.2491 38.3172 35.0601C38.6995 34.8396 39.05 34.7136 39.4642 34.7136C39.7828 34.7136 40.1014 34.7766 40.4519 34.9341C40.8024 35.0916 41.1847 35.2806 41.567 35.564L46.856 39.281C47.2702 39.5645 47.557 39.911 47.7482 40.289C47.9075 40.6984 48.0031 41.0764 48.0031 41.5174C47.8119 42.0529 47.6844 42.6514 47.4296 43.2184Z" fill="#FFFBFB"/>
</svg>
