<svg width="21" height="21" viewBox="0 0 21 21" fill="none" xmlns="http://www.w3.org/2000/svg">
<path d="M10.5 0C4.704 0 0 4.704 0 10.5C0 16.296 4.704 21 10.5 21C16.296 21 21 16.296 21 10.5C21 4.704 16.296 0 10.5 0ZM10.752 13.9125C11.571 13.9125 12.3795 13.608 12.999 13.062C13.3245 12.7785 13.8285 12.81 14.112 13.1355C14.3955 13.461 14.364 13.965 14.0385 14.2485C13.125 15.057 11.9595 15.498 10.752 15.498C8.001 15.498 5.7645 13.2615 5.7645 10.5105C5.7645 7.7595 8.001 5.523 10.752 5.523C11.9595 5.523 13.1355 5.964 14.0385 6.7725C14.364 7.056 14.3955 7.56 14.112 7.8855C13.818 8.211 13.3245 8.2425 12.999 7.959C12.3795 7.413 11.5815 7.1085 10.752 7.1085C8.8725 7.1085 7.3395 8.6415 7.3395 10.521C7.3395 12.4005 8.8725 13.9125 10.752 13.9125Z" fill="white"/>
</svg>
