<svg width="68" height="67" viewBox="0 0 68 67" fill="none" xmlns="http://www.w3.org/2000/svg">
<path d="M35.45 59.15C20.2346 59.15 7.89999 47.0281 7.89999 32.075C7.89999 17.1219 20.2346 5 35.45 5C50.6655 5 63 17.1219 63 32.075C63 47.0281 50.6655 59.15 35.45 59.15Z" fill="white" stroke="#333436" stroke-width="9.84637" stroke-linecap="round" stroke-linejoin="round"/>
<path d="M4.9998 62L10.7998 56.3L4.9998 62Z" fill="white"/>
<path d="M4.9998 62L10.7998 56.3" stroke="#333436" stroke-width="9.84637" stroke-linecap="round" stroke-linejoin="round"/>
<path d="M60.105 18.7685C57.6956 16.1039 53.6704 14.7716 47.831 14.7716H47.1507V14.6582C47.1507 9.89605 47.1507 4 36.4925 4H32.1838C21.5256 4 21.5256 9.92439 21.5256 14.6582V14.8H20.8453C14.9776 14.8 10.9808 16.1322 8.57132 18.7968C5.76503 21.9149 5.85007 26.1102 6.13353 28.9731L6.16188 29.1715L6.38145 31.4769C6.42187 31.9015 6.65054 32.2851 7.0074 32.5186C7.68714 32.9634 8.82482 33.6967 9.50675 34.0754C9.9036 34.3305 10.3288 34.5573 10.754 34.7841C15.6012 37.4486 20.9303 39.2345 26.3445 40.1132C26.5996 42.7777 27.7618 45.8959 33.9696 45.8959C40.1775 45.8959 41.3964 42.8061 41.5948 40.0565C47.3775 39.1211 52.9617 37.1085 58.0074 34.1605C58.1774 34.0754 58.2908 33.9904 58.4326 33.9053C59.5571 33.2698 60.7238 32.4866 61.7874 31.7195C62.1077 31.4882 62.3126 31.1311 62.3563 30.7385L62.4011 30.3337L62.5428 29.0014C62.5711 28.8313 62.5711 28.6896 62.5995 28.4912C62.8262 25.6283 62.7696 21.7165 60.105 18.7685ZM37.4279 38.1856C37.4279 41.1904 37.4279 41.6439 33.9413 41.6439C30.4547 41.6439 30.4547 41.1053 30.4547 38.214V34.6423H37.4279V38.1856ZM25.5791 14.7716V14.6582C25.5791 9.83935 25.5791 8.05353 32.1838 8.05353H36.4925C43.0972 8.05353 43.0972 9.8677 43.0972 14.6582V14.8H25.5791V14.7716Z" fill="#333436"/>
<path d="M59.4879 37.9175C60.4902 37.4404 61.6448 38.235 61.5444 39.3405L60.5268 50.5481C59.9315 56.2173 57.6071 62 45.1347 62H23.5349C11.0625 62 8.73808 56.2173 8.14281 50.5764L7.17702 39.9528C7.07769 38.86 8.20577 38.0663 9.20534 38.5187C12.4352 39.98 18.3968 42.5725 22.0795 43.5372C22.5453 43.659 22.922 43.9924 23.1259 44.4287C24.8464 48.1083 28.5781 50.0662 33.9662 50.0662C39.3016 50.0662 43.0802 48.0329 44.8065 44.3442C45.0106 43.9076 45.3878 43.5743 45.8539 43.4518C49.7642 42.4229 56.1099 39.5247 59.4879 37.9175Z" fill="#333436"/>
</svg>
