<svg width="56" height="56" viewBox="0 0 56 56" fill="none" xmlns="http://www.w3.org/2000/svg">
<path d="M5.5105 13.4912L21.6224 2.20593C26.014 -0.874428 32.7553 -0.706408 36.979 2.56997L50.993 13.5192C53.7902 15.7035 56 20.184 56 23.7123V43.0345C56 50.1753 50.2098 56 43.0769 56H12.9231C5.79022 56 3.8147e-06 50.2033 3.8147e-06 43.0625V24.0763C3.8147e-06 20.296 2.43357 15.6475 5.5105 13.4912ZM25.9021 44.7987C25.9021 45.9468 26.8532 46.8989 28 46.8989C29.1469 46.8989 30.0979 45.9468 30.0979 44.7987V36.3977C30.0979 35.2496 29.1469 34.2975 28 34.2975C26.8532 34.2975 25.9021 35.2496 25.9021 36.3977V44.7987Z" fill="white"/>
</svg>
