<svg width="71" height="71" viewBox="0 0 71 71" fill="none" xmlns="http://www.w3.org/2000/svg">
<g clip-path="url(#clip0_48_496)">
<path d="M22.3359 64.3439C49.1217 64.3439 63.7766 42.1467 63.7766 22.9032C63.7766 22.2792 63.7627 21.6413 63.735 21.0173C66.5858 18.9556 69.046 16.402 71 13.4763C68.345 14.6576 65.526 15.4291 62.6395 15.7644C65.6788 13.9426 67.9545 11.0806 69.0447 7.70894C66.1855 9.40345 63.0586 10.5988 59.7981 11.2437C57.6012 8.90941 54.6966 7.36385 51.5332 6.84595C48.3699 6.32805 45.124 6.86665 42.2975 8.3785C39.4709 9.89034 37.2212 12.2912 35.896 15.2099C34.5708 18.1286 34.244 21.4026 34.9661 24.5257C29.1765 24.2351 23.5126 22.7312 18.3416 20.1113C13.1706 17.4913 8.60784 13.814 4.9492 9.31753C3.08968 12.5236 2.52067 16.3173 3.3578 19.9278C4.19493 23.5383 6.37539 26.6946 9.45604 28.7552C7.14327 28.6817 4.88118 28.0591 2.85664 26.9386V27.1188C2.85457 30.4833 4.01771 33.7447 6.14833 36.3486C8.27896 38.9524 11.2456 40.7381 14.5439 41.402C12.4015 41.9882 10.1529 42.0736 7.97225 41.6517C8.90297 44.5451 10.7138 47.0759 13.1521 48.8906C15.5903 50.7054 18.5343 51.7136 21.5732 51.7747C16.4141 55.8273 10.0411 58.0253 3.48066 58.0149C2.31722 58.0132 1.15493 57.9419 0 57.8014C6.6647 62.0771 14.4175 64.3481 22.3359 64.3439Z" fill="white"/>
</g>
<defs>
<clipPath id="clip0_48_496">
<rect width="71" height="71" fill="white"/>
</clipPath>
</defs>
</svg>
