<svg width="56" height="57" viewBox="0 0 56 57" fill="none" xmlns="http://www.w3.org/2000/svg">
<path d="M13.726 56.1044C16.6747 56.1044 19.7801 55.3998 22.9897 54.0429C26.1212 52.712 29.2787 50.8854 32.3579 48.6673C35.411 46.4231 38.3597 43.918 41.1519 41.178C43.918 38.3858 46.4231 35.4371 48.6412 32.4101C50.8854 29.2787 52.6859 26.1473 53.9646 23.1202C55.3215 19.8844 56 16.753 56 13.8043C56 11.7689 55.6347 9.83784 54.9301 8.03728C54.1994 6.18453 53.0252 4.46226 51.4334 2.97484C49.424 0.991613 47.1277 0 44.6747 0C43.657 0 42.6132 0.234856 41.726 0.652377C40.7083 1.12209 39.8472 1.82665 39.2209 2.76608L33.1668 11.2992C32.6188 12.0559 32.2013 12.7866 31.9143 13.5172C31.575 14.3001 31.3924 15.0829 31.3924 15.8397C31.3924 16.8313 31.6794 17.7968 32.2274 18.7102C32.6188 19.4147 33.219 20.1715 33.9758 20.9282L35.7502 22.781C35.7241 22.8593 35.698 22.9115 35.6719 22.9637C35.3588 23.5117 34.7325 24.4511 33.5322 25.8602C32.2535 27.3215 31.0531 28.6524 29.8527 29.8788C28.3131 31.3924 27.0345 32.5927 25.8341 33.5843C24.3467 34.8369 23.3812 35.4632 22.8071 35.7502L22.8593 35.8807L20.9543 34.0019C20.1454 33.1929 19.3625 32.5927 18.6058 32.2013C17.1705 31.3141 15.3439 31.1575 13.5172 31.9143C12.8388 32.2013 12.1081 32.5927 11.3253 33.1407L2.66169 39.2992C1.69617 39.9515 0.991611 40.7866 0.574089 41.7782C0.182663 42.7698 0 43.6831 0 44.5965C0 45.849 0.287045 47.1016 0.835041 48.2759C1.38304 49.4501 2.06151 50.4679 2.92265 51.4073C4.41006 53.0513 6.02796 54.2255 7.9068 54.9823C9.70736 55.713 11.6645 56.1044 13.726 56.1044ZM44.6747 3.91426C46.11 3.91426 47.4408 4.54054 48.7195 5.7931C49.9199 6.91519 50.7549 8.14166 51.2768 9.47251C51.8248 10.8295 52.0857 12.2647 52.0857 13.8043C52.0857 16.2311 51.5116 18.8667 50.3635 21.5806C49.1892 24.3467 47.5452 27.2171 45.4576 30.0876C43.37 32.9581 40.9953 35.7502 38.3858 38.3858C35.7763 40.9692 32.9581 43.37 30.0615 45.4837C27.2432 47.5452 24.3467 49.2153 21.4762 50.4157C17.014 52.3206 12.8388 52.7642 9.39422 51.329C8.06337 50.781 6.8891 49.946 5.8192 48.7456C5.21901 48.0932 4.7493 47.3886 4.35787 46.5536C4.04473 45.9012 3.88816 45.2227 3.88816 44.5443C3.88816 44.1268 3.96645 43.7092 4.17521 43.2395C4.25349 43.083 4.41006 42.7959 4.90587 42.4567L13.5694 36.2982C14.0913 35.9329 14.561 35.672 15.0047 35.4893C15.5788 35.2544 15.8136 35.0196 16.7008 35.5676C17.2227 35.8285 17.6925 36.2199 18.2144 36.7418L20.1976 38.699C21.2153 39.6906 22.781 39.9254 23.9814 39.4818L24.6859 39.1687C25.7558 38.5946 27.0084 37.7074 28.3914 36.5331C29.644 35.4632 31.0009 34.2106 32.6449 32.5927C33.9236 31.288 35.2022 29.9049 36.5331 28.3653C37.7596 26.9301 38.6468 25.7036 39.1948 24.6859L39.5079 23.9031C39.6645 23.3029 39.7167 22.9637 39.7167 22.5983C39.7167 21.6589 39.3774 20.8239 38.7251 20.1715L36.7679 18.1361C36.246 17.6142 35.8546 17.1184 35.5937 16.6747C35.3849 16.3355 35.3066 16.0485 35.3066 15.7875C35.3066 15.5788 35.3849 15.2656 35.5154 14.9525C35.698 14.535 35.9851 14.0652 36.3504 13.5694L42.4045 5.01025C42.6654 4.64492 42.9786 4.38397 43.37 4.2013C43.7875 4.01864 44.2311 3.91426 44.6747 3.91426ZM22.8593 35.9068L23.2768 37.6813L22.5722 35.8546C22.7027 35.8285 22.8071 35.8546 22.8593 35.9068Z" fill="#292D32"/>
</svg>
