<svg width="57" height="58" viewBox="0 0 57 58" fill="none" xmlns="http://www.w3.org/2000/svg">
<path d="M54.105 14.7685C51.6956 12.1039 47.6704 10.7716 41.831 10.7716H41.1507V10.6582C41.1507 5.89605 41.1507 0 30.4925 0H26.1838C15.5256 0 15.5256 5.92439 15.5256 10.6582V10.8H14.8453C8.9776 10.8 4.98076 12.1322 2.57132 14.7968C-0.234969 17.9149 -0.149931 22.1102 0.133533 24.9731L0.16188 25.1715L0.381451 27.4769C0.421873 27.9015 0.650543 28.2851 1.0074 28.5186C1.68714 28.9634 2.82482 29.6967 3.50675 30.0754C3.9036 30.3305 4.3288 30.5573 4.75399 30.7841C9.60122 33.4486 14.9303 35.2345 20.3445 36.1132C20.5996 38.7777 21.7618 41.8959 27.9696 41.8959C34.1775 41.8959 35.3964 38.8061 35.5948 36.0565C41.3775 35.1211 46.9617 33.1085 52.0074 30.1605C52.1774 30.0754 52.2908 29.9904 52.4326 29.9053C53.5571 29.2698 54.7238 28.4866 55.7874 27.7195C56.1077 27.4882 56.3126 27.1311 56.3563 26.7385L56.4011 26.3337L56.5428 25.0014C56.5711 24.8313 56.5711 24.6896 56.5995 24.4912C56.8262 21.6283 56.7696 17.7165 54.105 14.7685ZM31.4279 34.1856C31.4279 37.1904 31.4279 37.6439 27.9413 37.6439C24.4547 37.6439 24.4547 37.1053 24.4547 34.214V30.6423H31.4279V34.1856ZM19.5791 10.7716V10.6582C19.5791 5.83935 19.5791 4.05353 26.1838 4.05353H30.4925C37.0972 4.05353 37.0972 5.8677 37.0972 10.6582V10.8H19.5791V10.7716Z" fill="#292D32"/>
<path d="M53.4879 33.9175C54.4902 33.4404 55.6448 34.235 55.5444 35.3405L54.5268 46.5481C53.9315 52.2173 51.6071 58 39.1347 58H17.5349C5.06249 58 2.73808 52.2173 2.14281 46.5764L1.17702 35.9528C1.07769 34.86 2.20577 34.0663 3.20534 34.5187C6.43519 35.98 12.3968 38.5725 16.0795 39.5372C16.5453 39.659 16.922 39.9924 17.1259 40.4287C18.8464 44.1083 22.5781 46.0662 27.9662 46.0662C33.3016 46.0662 37.0802 44.0329 38.8065 40.3442C39.0106 39.9076 39.3878 39.5743 39.8539 39.4518C43.7642 38.4229 50.1099 35.5247 53.4879 33.9175Z" fill="#292D32"/>
</svg>
