<svg width="56" height="56" viewBox="0 0 56 56" fill="none" xmlns="http://www.w3.org/2000/svg">
<path d="M5.5105 13.4762L21.6224 2.20347C26.014 -0.873455 32.7553 -0.705622 36.979 2.56711L50.993 13.5042C53.7902 15.686 56 20.1615 56 23.6859V42.9866C56 50.1195 50.2098 55.9377 43.0769 55.9377H12.9231C5.79022 55.9377 3.8147e-06 50.1475 3.8147e-06 43.0146V24.0495C3.8147e-06 20.2734 2.43357 15.6301 5.5105 13.4762ZM25.9021 44.7489C25.9021 45.8957 26.8532 46.8468 28 46.8468C29.1469 46.8468 30.0979 45.8957 30.0979 44.7489V36.3572C30.0979 35.2104 29.1469 34.2593 28 34.2593C26.8532 34.2593 25.9021 35.2104 25.9021 36.3572V44.7489Z" fill="#292D32"/>
</svg>
